<?xml version="1.0" encoding="UTF-8"?>
<svg id="Layer_1" xmlns="http://www.w3.org/2000/svg" version="1.1" viewBox="0 0 718 376">
  <g fill="#022551">
    <polygon points="538.8 138 579.5 194.2 581 194.5 581 138 599.5 138 599.5 232 585.8 232 544.5 175.2 543.5 175.8 543.5 231.2 542.8 232 525.2 232 525 138 538.8 138"/>
    <path d="M676.2,138c19.6,2.2,32.4,24.1,24.8,42.3-3.4,8.2-9.5,11.7-16.1,16.9l20.5,34.8h-20l-20.2-33h-13.8l-.5,1.2v31.8h-18.5v-94h43.8ZM651.5,183.5h20.2c10.3,0,15.8-13.1,11.2-21.7s-6.2-6.8-9.2-6.8h-22.2v28.5Z"/>
    <path d="M409.5,232l33.3-93.5,23-.5,34.7,94h-18.2l-7.5-17h-38.9c0,.1-7.1,17-7.1,17h-19.2ZM442.2,198h26.8l-13.8-38-13.6,36.5.6,1.5Z"/>
    <path d="M387.5,138v16.8l-.8.8h-39.8v20l1.2.5h35l.8.8v16.2h-36.2l-.8.8v20.8l1.2.5h39.8v15.8c0,.1.4.3.4.5l-.6.8h-59.2v-94h59Z"/>
    <path d="M204.1,166.4c-18-24.8-58.4-12.1-57.1,19.9,1.2,31.1,40.8,40.6,57.8,16.7l15.7,8.5c-4.1,8.9-14.1,16.1-23.4,19.4-38.2,13.4-75.8-16.5-67.5-57s67.6-51.4,90.8-16.5c.1.7-.5,1-1,1.4-1.3,1.1-10.6,6.3-12.4,7s-2,1.1-2.9.6Z"/>
    <polygon points="266 138 266 214.2 266.8 215 303 215 303 231.2 302.2 232 247.8 232 247 231.2 247 138 266 138"/>
    <path d="M31.8,206.7c7,4,13.4,9.7,21.5,11.6,13.6-5.6,27.4-21.7,43.5-19.2,11.8,1.8,6.8,15.9,3.7,23.1-20.4,47.6-96.9,34.4-97.9-16.9-.4-20,21.3-3.2,29.3,1.5ZM7.9,199.1l-1.4,2.1c6.1,15.8,24.5,24.2,40.5,19,.2-.8-9.2-5.4-10.6-6.3-5.8-3.6-11.3-7.9-17.4-11.1-2.9-1.5-7.8-4.8-11.1-3.7ZM7,211.5c8.9,42.4,66.7,51.3,88.2,12.9s9.1-19.2,1.9-21.8c-12.3-4.5-31.8,14.8-43.4,19.3-12.9,5-28.3,4.2-39.6-4.3-1.3-1-6.1-7.1-7.1-6.1Z"/>
    <path d="M55.3,119.2c11.3,7.7,41,45.9,43.8,59s-.8,11.4-6.2,15c-12,7.9-27.6-1.2-39.1-5.7-12.4,4.5-31.9,15.4-42.9,3-6-6.8-3-12.6.3-19.6,9.3-19.7,26.2-38.4,42.3-52.7.8,0,1.4.7,2,1.1ZM80.7,153.3c-8-11.2-17-21.8-27.4-30.8-12.1,11.2-23.5,24.2-32.3,38.2s-18,26.3-.7,31.7c6.4,2,12-.2,18-2.4,17.7-6.2,34.5-19.7,54.2-17.6-3.1-6.9-7.4-13.1-11.8-19.2ZM58.6,185.9c8.8,3.1,19.4,9.8,28.9,6.3,5.6-2.1,11.8-9.3,6.1-14.5s-26.8,3.6-35,6.8v1.4Z"/>
  </g>
</svg>
